<svg width="578" height="401" viewBox="0 0 578 401" fill="none" xmlns="http://www.w3.org/2000/svg">
<g clip-path="url(#clip0_128_430)">
<path d="M191.235 139.105C193.106 144.693 195.343 153.135 196.143 164.051C195.966 168.755 196.007 173.472 195.587 178.163C193.391 202.769 183.116 223.324 164.626 239.705C159.312 244.409 158.811 246.339 161.196 253.109C162.444 256.671 164.043 260.179 164.748 263.849C166.442 272.631 164.097 280.353 157.699 286.742C157.292 286.702 156.886 286.661 156.506 286.606C148.305 285.56 142.015 281.169 138.654 273.746C133.95 263.36 129.693 252.688 129.748 240.834C129.829 223.283 135.956 208.356 148.983 196.665C157.591 188.943 164.179 180.365 165.453 168.47C167.08 153.434 162.172 140.981 150.108 131.927C137.271 122.289 123.241 121.052 108.655 127.876C107.652 128.352 106.649 128.787 105.632 129.195C104.927 129.48 104.195 129.752 103.463 130.011C77.2606 132.118 63.1086 154.399 64.8166 174.098C65.142 177.891 66.1315 181.48 67.2024 185.096C70.0084 194.734 68.3817 203.421 61.1295 210.722C60.7093 210.749 60.3027 210.749 59.896 210.722C52.7658 210.613 47.6825 206.562 43.6158 201.069C38.3291 193.932 36.5534 185.3 35.5774 176.79C31.3752 140.356 44.0496 110.965 73.1804 88.7375C73.926 88.1666 74.7257 87.6636 75.5391 87.1742C76.9488 86.3313 78.4399 85.6788 79.5651 85.0942C79.6328 85.0534 79.7006 85.0262 79.7548 84.9854L79.6464 85.0262C76.2304 86.2905 72.9228 89.023 68.7342 89.023C68.2055 89.023 67.6633 88.9823 67.1075 88.8871C76.1084 83.626 86.0988 81.546 96.2519 80.7032C100.644 80.3361 118.564 78.6776 139.575 86.7663C154.839 92.6392 164.45 100.782 166.497 102.563C171.241 106.682 179.659 114.88 186.233 127.414C187.182 129.236 189.365 133.369 191.276 139.092L191.235 139.105Z" fill="url(#paint0_linear_128_430)"/>
<path d="M162.471 182.364C159.448 188.508 154.432 193.008 149.498 197.589C134.438 211.633 128.785 229.034 131.537 249.317C132.676 257.664 136.173 265.331 139.331 272.999C142.015 279.497 147.736 283.276 154.419 285.329C155.286 285.587 156.14 285.805 156.926 286.212C157.211 286.348 157.455 286.512 157.713 286.715C146.231 298.189 126.44 295.62 118.971 281.21C110.485 264.828 106.934 247.617 112.925 229.401C116.368 218.906 122.373 210.164 130.724 202.973C144.659 190.955 149.308 175.852 144.062 158.328C139.236 142.219 124.624 131.085 107.462 130.269C106.134 130.201 104.805 130.092 103.463 129.997C103.843 129.712 104.236 129.426 104.616 129.154C116.504 120.835 133.855 120.332 146.584 128.094C165.616 139.69 172.298 162.366 162.484 182.364H162.471Z" fill="url(#paint1_linear_128_430)"/>
<path d="M81.4764 83.7212C80.9884 84.0611 80.5139 84.4145 80.0259 84.7544C79.9039 84.8495 79.7684 84.9583 79.6328 85.0399C79.6057 85.0671 79.5786 85.0806 79.5515 85.1078C72.34 90.2738 65.4131 95.698 59.53 102.359C39.8338 124.654 32.2969 150.484 37.1769 179.944C38.0716 185.381 39.5085 190.724 41.5825 195.713C44.9849 203.897 51.6542 208.519 60.1129 210.491C60.4518 210.572 60.7907 210.654 61.1295 210.722C60.1129 212.802 57.7542 213.413 56.3444 215.085L56.2496 215.126C50.9087 217.179 45.5949 219.028 39.6711 217.954C28.1896 215.874 20.2461 207.228 17.7112 193.837C17.5079 192.79 17.2232 191.771 16.9792 190.738C8.30366 152.591 26.3867 111.522 60.2755 92.2858C62.4986 91.0215 64.7082 89.798 67.1075 88.9279L81.4899 83.7484L81.4764 83.7212Z" fill="url(#paint2_linear_128_430)"/>
<path d="M182.75 356.374C174.793 364.639 162.349 366.066 152.155 359.84C142.327 353.845 138.003 341.61 141.717 330.272C145.242 319.573 156.127 312.504 167.337 313.673C168.245 315.318 167.134 316.528 166.361 317.724C156.547 332.814 165.846 350.963 180.161 354.362C181.218 354.606 182.682 354.688 182.763 356.374H182.75Z" fill="url(#paint3_linear_128_430)"/>
<path d="M188.782 330.476C192.13 340.21 190.015 348.965 182.75 356.374C178.819 354.77 174.63 353.9 171.133 351.14C160.654 342.915 158.079 328.301 165.453 317.181C166.198 316.066 167.134 315.087 167.337 313.687C177.924 314.856 185.298 320.403 188.782 330.476Z" fill="url(#paint4_linear_128_430)"/>
<path d="M415.404 123.026C415.243 131.04 414.246 142.862 410.287 157.198C407.912 163.138 405.801 169.196 403.118 174.989C389.057 205.455 366.508 227.04 335.352 239.48C326.409 243.053 324.884 245.302 324.84 255.051C324.811 260.183 325.251 265.402 324.473 270.416C322.626 282.429 316.087 291.237 304.988 296.457C304.49 296.221 303.991 295.986 303.522 295.736C293.508 290.634 287.468 282.106 286.559 271.063C285.298 255.61 284.726 239.994 290.21 224.864C298.347 202.441 313.008 186.164 335.015 177.195C349.559 171.269 361.904 163.329 368.986 148.699C377.944 130.202 377.357 112.013 366.068 94.898C354.046 76.6654 336.672 68.6225 314.885 70.6516C313.389 70.7986 311.909 70.8868 310.413 70.9457C309.372 70.9898 308.316 71.0045 307.261 70.9898C272.777 61.6382 244.48 83.635 237.648 109.616C236.329 114.616 235.962 119.659 235.669 124.791C234.848 138.421 228.793 148.787 216.184 154.786C215.641 154.625 215.113 154.433 214.6 154.228C205.525 150.802 200.877 143.288 198.179 134.392C194.675 122.82 196.361 110.969 199 99.6326C210.29 51.0956 239.95 19.3062 287.38 4.27898C288.597 3.89669 289.843 3.61732 291.104 3.36735C293.288 2.94094 295.502 2.79391 297.203 2.55865C297.306 2.54394 297.408 2.52924 297.496 2.51454H297.335C292.394 2.55865 286.911 4.52895 281.545 2.61746C280.87 2.3675 280.196 2.07342 279.521 1.69113C293.45 -0.896727 307.188 1.02946 320.559 4.63187C326.35 6.19047 350.028 12.3072 373.208 32.319C390.04 46.8463 398.617 61.697 400.42 64.9024C404.613 72.3572 411.621 86.7228 414.304 105.779C414.686 108.543 415.58 114.836 415.404 123.026Z" fill="url(#paint5_linear_128_430)"/>
<path d="M358.811 165.138C352.14 171.607 343.651 175.063 335.25 178.651C309.548 189.693 294.359 209.352 288.611 236.568C286.251 247.773 287.219 259.198 287.746 270.446C288.201 279.989 293.802 287.458 301.411 293.163C302.393 293.898 303.405 294.56 304.211 295.442C304.505 295.751 304.754 296.074 304.988 296.457C285.049 305.852 260.901 293.457 257.94 271.593C254.582 246.729 257.91 223.07 273.906 202.529C283.113 190.693 294.799 182.268 308.756 176.901C332.083 167.932 344.941 150.758 346.246 125.923C347.433 103.088 333.842 82.1353 312.246 73.1807C310.574 72.4897 308.932 71.7251 307.261 70.9899C307.877 70.7987 308.507 70.6076 309.123 70.4459C328.139 65.2701 350.571 72.6073 363.297 88.3844C382.342 111.969 380.524 144.067 358.811 165.138Z" fill="url(#paint6_linear_128_430)"/>
<path d="M300.297 1.69092C299.52 1.91147 298.743 2.13203 297.965 2.33788C297.76 2.3967 297.54 2.47022 297.335 2.51433C297.291 2.52903 297.247 2.54373 297.203 2.55844C285.606 5.85207 274.273 9.60152 263.702 15.4242C228.309 34.8919 206.844 64.4611 199.616 104.396C198.282 111.763 197.666 119.262 198.047 126.599C198.663 138.641 205.085 147.611 214.996 154.021C215.392 154.286 215.788 154.536 216.184 154.786C213.926 156.977 210.627 156.683 208.061 158.168H207.915C200.144 158.344 192.505 158.256 185.409 154.168C171.671 146.228 165.455 131.51 168.343 113.204C168.563 111.778 168.666 110.337 168.827 108.896C175.176 56.0947 217.093 11.8806 269.244 2.85251C272.66 2.24966 276.047 1.70562 279.521 1.69092H300.297Z" fill="url(#paint7_linear_128_430)"/>
<path d="M305.179 397.103C291.221 404.029 274.654 400.118 264.449 387.472C254.611 375.283 254.685 357.639 264.625 344.846C274.023 332.775 291.192 328.746 304.988 335.392C305.399 337.921 303.42 338.95 301.88 340.126C282.424 354.918 286.016 382.414 302.774 393.339C304.021 394.148 305.853 394.912 305.179 397.103Z" fill="url(#paint8_linear_128_430)"/>
<path d="M324.737 366.74C324.576 380.738 317.861 390.972 305.179 397.104C300.883 393.251 295.928 390.208 292.702 385.061C283.055 369.725 286.442 349.831 300.971 338.995C302.437 337.906 304.079 337.083 304.988 335.392C318.008 341.759 324.899 352.243 324.737 366.74Z" fill="url(#paint9_linear_128_430)"/>
<path d="M558.1 174.51C556.155 179.54 552.811 186.769 547.015 194.904C544.155 198.109 541.43 201.45 538.396 204.48C522.518 220.478 503.322 228.899 480.794 229.557C474.33 229.743 472.843 230.811 470.577 236.96C469.376 240.189 468.459 243.592 466.812 246.573C462.886 253.727 456.731 257.789 448.532 258.521C448.272 258.261 448.012 258 447.777 257.726C442.625 252.187 440.767 245.405 442.736 238.226C445.486 228.178 448.718 218.18 455.653 209.896C465.945 197.612 478.937 190.718 494.901 190.147C505.452 189.762 515.063 187.601 522.902 180C532.81 170.386 536.612 158.761 533.417 145.347C530.011 131.051 520.884 121.959 506.666 118.208C505.688 117.96 504.734 117.674 503.78 117.364C503.112 117.152 502.443 116.917 501.774 116.668C482.144 102.795 459.22 110.147 448.941 124.977C446.959 127.834 445.572 130.927 444.21 134.106C440.556 142.527 434.352 147.669 425.014 148.551C424.704 148.328 424.419 148.079 424.147 147.831C419.205 143.571 417.991 137.758 418.326 131.51C418.772 123.388 422.561 116.295 426.822 109.75C445.102 81.7047 471.134 68.477 504.536 69.9426C505.39 69.9799 506.245 70.0917 507.099 70.2283C508.573 70.4643 510.01 70.8866 511.137 71.1225C511.211 71.135 511.273 71.1474 511.335 71.1598L511.236 71.1225C508.103 70.0047 504.189 69.9923 501.241 67.5455C500.87 67.235 500.511 66.8872 500.176 66.4897C509.564 68.0671 517.8 72.4639 525.416 77.8296C528.711 80.1522 542.26 89.4799 552.316 107.477C559.611 120.543 561.617 131.896 562.013 134.342C562.955 140.018 564.082 150.712 561.394 163.369C561.01 165.207 560.118 169.38 558.125 174.522L558.1 174.51Z" fill="url(#paint10_linear_128_430)"/>
<path d="M512.685 188.023C506.988 190.569 500.833 190.793 494.702 191.116C475.94 192.147 461.833 201.064 451.95 216.913C447.888 223.446 445.869 230.886 443.628 238.102C441.721 244.238 443.541 250.249 447.046 255.602C447.492 256.298 447.987 256.944 448.297 257.689C448.408 257.95 448.495 258.211 448.557 258.509C433.807 259.838 421.41 246.436 424.555 231.942C428.147 215.46 435.677 201.288 450.501 192.01C459.034 186.657 468.348 184.036 478.392 183.875C495.185 183.601 507.248 175.727 513.775 160.338C519.769 146.191 516.004 129.821 504.412 119.177C503.52 118.357 502.653 117.488 501.762 116.643C502.195 116.668 502.641 116.693 503.062 116.73C516.264 117.848 528.736 127.672 533.157 140.577C539.77 159.866 531.25 179.726 512.697 188.011L512.685 188.023Z" fill="url(#paint11_linear_128_430)"/>
<path d="M513.267 71.2839C512.722 71.2467 512.19 71.2094 511.645 71.1597C511.496 71.1597 511.347 71.1473 511.211 71.1225C511.174 71.1225 511.149 71.1225 511.112 71.1225C503.037 70.5263 495.012 70.2779 486.999 71.5075C460.174 75.6311 439.826 89.3432 426.091 112.892C423.552 117.239 421.447 121.835 419.998 126.555C417.62 134.305 419.614 141.447 424.407 147.794C424.593 148.054 424.791 148.303 424.976 148.551C423.044 149.408 421.026 148.464 419.069 148.812L418.982 148.775C414.028 147.086 409.235 145.272 405.693 141.049C398.845 132.864 398.3 122.133 404.319 111.24C404.789 110.396 405.186 109.501 405.619 108.632C421.756 76.7489 458.378 58.5158 493.39 64.8626C495.681 65.2725 497.947 65.7072 500.152 66.5021L513.267 71.2964V71.2839Z" fill="url(#paint12_linear_128_430)"/>
<path d="M425.534 322.126C415.131 323.281 405.57 316.984 402.028 306.638C398.609 296.664 402.709 285.536 411.923 279.76C420.629 274.308 432.395 275.724 439.59 283.114C439.268 284.803 437.782 285.002 436.544 285.387C420.865 290.231 416.815 308.426 424.89 319.195C425.497 319.99 426.475 320.896 425.546 322.126H425.534Z" fill="url(#paint13_linear_128_430)"/>
<path d="M444.866 307.47C441.547 316.276 434.958 321.182 425.546 322.126C423.713 318.698 421.286 315.63 420.431 311.643C417.855 299.732 424.568 287.945 436.234 284.467C437.411 284.12 438.637 283.983 439.603 283.126C446.365 290.156 448.309 298.366 444.879 307.482L444.866 307.47Z" fill="url(#paint14_linear_128_430)"/>
</g>
<defs>
<linearGradient id="paint0_linear_128_430" x1="113.945" y1="87.6869" x2="213.039" y2="209.049" gradientUnits="userSpaceOnUse">
<stop offset="0.279167" stop-color="#EEEEEE"/>
<stop offset="0.773958" stop-color="#CCCCCC"/>
</linearGradient>
<linearGradient id="paint1_linear_128_430" x1="134.622" y1="128.698" x2="207.536" y2="171.053" gradientUnits="userSpaceOnUse">
<stop offset="0.279167" stop-color="#EEEEEE"/>
<stop offset="0.773958" stop-color="#CCCCCC"/>
</linearGradient>
<linearGradient id="paint2_linear_128_430" x1="47.5263" y1="88.5265" x2="111.39" y2="138.11" gradientUnits="userSpaceOnUse">
<stop offset="0.279167" stop-color="#EEEEEE"/>
<stop offset="0.773958" stop-color="#CCCCCC"/>
</linearGradient>
<linearGradient id="paint3_linear_128_430" x1="161.18" y1="315.338" x2="184.815" y2="346.623" gradientUnits="userSpaceOnUse">
<stop offset="0.279167" stop-color="#EEEEEE"/>
<stop offset="0.773958" stop-color="#CCCCCC"/>
</linearGradient>
<linearGradient id="paint4_linear_128_430" x1="175.512" y1="315.212" x2="196.382" y2="337.493" gradientUnits="userSpaceOnUse">
<stop offset="0.279167" stop-color="#EEEEEE"/>
<stop offset="0.773958" stop-color="#CCCCCC"/>
</linearGradient>
<linearGradient id="paint5_linear_128_430" x1="303.742" y1="11.0703" x2="447.148" y2="177.517" gradientUnits="userSpaceOnUse">
<stop offset="0.279167" stop-color="#EEEEEE"/>
<stop offset="0.773958" stop-color="#CCCCCC"/>
</linearGradient>
<linearGradient id="paint6_linear_128_430" x1="315.464" y1="77.0461" x2="426.157" y2="166.967" gradientUnits="userSpaceOnUse">
<stop offset="0.279167" stop-color="#EEEEEE"/>
<stop offset="0.773958" stop-color="#CCCCCC"/>
</linearGradient>
<linearGradient id="paint7_linear_128_430" x1="232.722" y1="7.28113" x2="306.427" y2="105.15" gradientUnits="userSpaceOnUse">
<stop offset="0.279167" stop-color="#EEEEEE"/>
<stop offset="0.773958" stop-color="#CCCCCC"/>
</linearGradient>
<linearGradient id="paint8_linear_128_430" x1="280.767" y1="334.643" x2="314.056" y2="371.46" gradientUnits="userSpaceOnUse">
<stop offset="0.279167" stop-color="#EEEEEE"/>
<stop offset="0.773958" stop-color="#CCCCCC"/>
</linearGradient>
<linearGradient id="paint9_linear_128_430" x1="305.64" y1="337.596" x2="335.838" y2="366.344" gradientUnits="userSpaceOnUse">
<stop offset="0.279167" stop-color="#EEEEEE"/>
<stop offset="0.773958" stop-color="#CCCCCC"/>
</linearGradient>
<linearGradient id="paint10_linear_128_430" x1="489.307" y1="73.348" x2="582.097" y2="182.977" gradientUnits="userSpaceOnUse">
<stop offset="0.279167" stop-color="#EEEEEE"/>
<stop offset="0.773958" stop-color="#CCCCCC"/>
</linearGradient>
<linearGradient id="paint11_linear_128_430" x1="478.672" y1="121.713" x2="546.773" y2="205.387" gradientUnits="userSpaceOnUse">
<stop offset="0.279167" stop-color="#EEEEEE"/>
<stop offset="0.773958" stop-color="#CCCCCC"/>
</linearGradient>
<linearGradient id="paint12_linear_128_430" x1="455.643" y1="66.6558" x2="488.314" y2="134.526" gradientUnits="userSpaceOnUse">
<stop offset="0.279167" stop-color="#EEEEEE"/>
<stop offset="0.773958" stop-color="#CCCCCC"/>
</linearGradient>
<linearGradient id="paint13_linear_128_430" x1="419.846" y1="278.092" x2="441.424" y2="306.7" gradientUnits="userSpaceOnUse">
<stop offset="0.279167" stop-color="#EEEEEE"/>
<stop offset="0.773958" stop-color="#CCCCCC"/>
</linearGradient>
<linearGradient id="paint14_linear_128_430" x1="432.96" y1="284.519" x2="452.023" y2="304.934" gradientUnits="userSpaceOnUse">
<stop offset="0.279167" stop-color="#EEEEEE"/>
<stop offset="0.773958" stop-color="#CCCCCC"/>
</linearGradient>
<clipPath id="clip0_128_430">
<rect width="578" height="400" fill="white" transform="translate(0 0.5)"/>
</clipPath>
</defs>
</svg>
