<svg width="256" height="256" viewBox="0 0 256 256" fill="none" xmlns="http://www.w3.org/2000/svg">
<g clip-path="url(#clip0_691_2)">
<path d="M178.056 213.02C175.102 216.342 171.289 218.828 167.683 221.488C157.539 228.946 146.685 235.489 135.327 241.344C134.631 241.698 133.942 242.045 133.542 242.674C133.475 242.781 133.416 242.888 133.364 243.008C133.009 246.323 133.313 249.631 133.209 252.932C133.187 253.674 133.261 254.436 133.002 255.131C132.891 255.439 132.72 255.726 132.446 256H124.131C123.983 255.846 123.85 255.679 123.746 255.499C123.709 255.452 123.68 255.412 123.657 255.365C123.65 255.298 123.635 255.238 123.628 255.171C123.191 252.164 123.406 249.143 123.487 246.142C123.546 243.997 122.85 242.634 120.725 241.471C109.123 235.102 97.9946 228.111 87.562 220.252C74.501 210.414 62.1286 199.948 52.3477 187.257C50.9631 185.465 49.4675 184.57 46.9204 184.537C41.6634 184.456 38.3612 181.329 38.1613 176.61C38.0798 174.706 37.9613 172.781 38.3538 170.876C38.7906 169.626 38.5981 168.336 38.6499 167.067C38.6647 166.532 38.7462 166.011 38.8721 165.496C39.2201 164.594 39.1978 163.665 39.1534 162.729C39.109 161.64 39.3311 160.571 39.4348 159.495C39.5014 158.793 39.3089 158.138 38.6129 157.744C37.7614 157.262 37.0284 157.67 36.3398 158.118C35.8882 158.412 35.4958 158.773 35.1552 159.167C32.2231 162.609 29.639 166.231 27.7732 170.268C26.9365 172.086 27.1586 173.603 28.447 175.153C31.4457 178.742 34.3999 182.358 37.3394 185.987C39.2719 188.366 40.2196 190.866 40.2048 193.86C40.1234 213.261 40.1604 232.656 40.153 252.057C40.153 253.086 40.2566 254.129 39.9457 255.138C39.9309 255.185 39.9161 255.231 39.9012 255.278C39.8568 255.352 39.8124 255.425 39.7606 255.499C39.6495 255.673 39.5236 255.84 39.3755 256H21.6499C20.7688 255.098 20.8503 253.995 20.8429 252.912C20.7392 239.599 21.3611 226.286 21.5759 212.967C21.6943 205.736 21.8128 198.498 21.9165 191.26C21.9905 186.234 22.531 181.268 23.9748 176.43C24.6634 174.111 24.2932 172.306 22.6865 170.402C18.9326 165.971 15.3637 161.413 11.6987 156.922C11.3655 156.514 11.0101 156.113 10.7806 155.658C10.6621 155.438 10.5732 155.211 10.5288 154.963C13.4016 150.238 17.511 146.496 22.3237 143.435C31.6974 137.487 41.7745 132.541 51.4444 127.021C58.5672 122.958 65.7715 119.028 72.9536 115.051C73.4867 114.757 74.1308 114.624 74.7232 114.416C75.086 114.416 75.3007 114.477 75.4118 114.57C75.6931 114.804 75.3821 115.245 75.1748 115.539C74.4048 116.675 73.4941 117.731 72.4797 118.707C58.2785 132.381 50.4448 148.701 47.9644 167.18C47.646 169.566 47.2092 171.959 47.261 174.391C47.2906 175.748 47.9348 176.584 49.4156 176.323C54.5393 175.421 56.9457 178.147 59.4261 181.609C68.0076 193.606 78.9658 203.691 91.0642 212.813C101.586 220.739 112.847 227.683 124.776 233.752C125.96 234.353 127.071 235.289 128.596 235.021C128.678 235.008 128.752 234.995 128.833 234.975C128.855 234.975 128.87 234.955 128.892 234.941C141.413 228.819 153.023 221.495 164.033 213.361C165.884 211.991 167.749 210.628 169.415 209.057C170.193 208.335 171.081 207.741 172.273 207.674H172.281C172.362 207.707 172.444 207.747 172.525 207.787C174.954 208.903 176.879 210.467 177.945 212.78C177.967 212.813 177.982 212.847 177.989 212.88C178.012 212.927 178.034 212.974 178.056 213.02Z" fill="#282828"/>
<path d="M252.098 256H216.647C216.506 255.84 216.38 255.672 216.269 255.499C216.217 255.425 216.166 255.345 216.121 255.265C216.106 255.225 216.091 255.191 216.084 255.151C215.78 254.216 215.862 253.246 215.862 252.291C215.855 232.736 215.884 213.181 215.825 193.619C215.817 191.006 216.491 188.713 218.194 186.615C226.309 176.617 234.35 166.559 242.576 156.634C243.132 155.966 243.672 155.211 244.598 155.017C244.842 154.963 245.123 154.957 245.434 154.997C251.002 162.221 253.986 170.268 254.297 179.03C254.682 189.923 254.741 200.83 254.993 211.737C255.282 224.215 255.556 236.699 255.993 249.17C256.104 252.251 255.06 254.496 252.098 256Z" fill="#282828"/>
<path d="M25.3446 174.752C23.1678 180.994 22.6643 187.417 22.7531 193.913C22.9309 207.801 22.2052 221.682 22.0201 235.569C21.9313 242.373 21.8721 249.19 21.6499 256H4.47219C0.940394 254.476 -0.0739808 251.91 6.11114e-05 248.468C0.518355 226.774 0.866352 205.081 1.2958 183.387C1.49571 173.155 3.7836 163.471 10.5214 154.963C10.6843 155.084 10.8472 155.204 11.0027 155.331C14.2087 157.844 15.9931 161.386 18.6957 164.28C20.7614 166.492 22.5088 168.945 24.4265 171.27C25.2928 172.326 25.8037 173.422 25.3372 174.752H25.3446Z" fill="#262626"/>
<path d="M124.124 255.499C124.124 255.666 124.131 255.833 124.131 255.993H39.3755C39.3755 255.826 39.3755 255.659 39.3829 255.499C40.4417 254.637 41.767 254.697 43.048 254.697C68.8516 254.683 94.6552 254.683 120.451 254.697C121.732 254.697 123.058 254.637 124.116 255.499H124.124Z" fill="#303030"/>
<path d="M216.632 255.499C216.632 255.666 216.639 255.826 216.647 255.993H132.994C132.854 255.632 132.965 255.358 133.32 255.158C134.616 254.563 136.022 254.69 137.392 254.69C162.3 254.677 187.215 254.677 212.123 254.69C213.663 254.69 215.292 254.456 216.625 255.492L216.632 255.499Z" fill="#303030"/>
<path d="M133.002 255.499C133.002 255.666 133.002 255.833 133.002 255.993H132.446C132.446 252.104 132.431 248.207 132.461 244.318C132.461 243.523 132.157 242.64 132.994 241.985C133.594 242.46 133.772 243.108 133.801 243.776C133.942 247.078 133.942 250.386 133.801 253.688C133.772 254.363 133.52 254.984 133.009 255.499H133.002Z" fill="#2B2B2B"/>
<path d="M245.434 154.997C245.234 155.131 245.049 155.271 244.864 155.418C242.51 157.236 241.029 159.695 239.222 161.894C232.247 170.415 225.384 179.01 218.453 187.557C217.15 189.161 216.61 190.872 216.61 192.884C216.662 213.756 216.639 234.627 216.632 255.499H133.002V255.131C133.002 250.747 132.994 246.376 132.994 241.992C140.036 238.102 147.181 234.367 153.926 230.049C160.804 225.645 167.579 221.12 173.799 215.941C175.072 214.878 176.501 213.969 177.856 212.987C177.878 212.913 177.908 212.847 177.945 212.78C178.374 211.717 179.33 211.009 180.188 210.24C188.452 202.835 196.381 195.17 202.823 186.361C204.23 184.436 205.896 183.287 208.687 183.287C213.596 183.294 216.676 180.213 216.676 175.795C216.669 158.88 211.612 143.248 202.194 128.692C201.653 127.856 200.631 127.088 200.95 125.972C200.987 125.838 201.046 125.698 201.128 125.551C206.207 127.683 210.753 130.63 215.499 133.263C221.904 136.825 228.56 140.06 234.506 144.25C238.807 147.278 242.561 150.773 245.434 154.997Z" fill="#303030"/>
<path d="M129.122 235.503C127.974 236.579 127.041 235.556 126.19 235.135C118.097 231.185 110.352 226.728 102.874 221.902C93.9592 216.155 85.5777 209.819 77.8403 202.855C70.0289 195.831 62.8764 188.232 57.1234 179.685C55.7018 177.586 54.0654 176.55 51.3481 176.971C50.541 177.098 49.6821 176.918 48.8677 177.005C46.987 177.198 46.4687 176.403 46.5576 174.826C46.9648 167.621 47.9644 160.497 50.156 153.54C54.3542 140.227 61.3586 128.344 71.9614 118.239C72.9683 117.284 74.3751 116.435 74.6639 114.985C74.7083 114.804 74.7231 114.617 74.7231 114.416C78.8991 111.663 83.4379 109.464 88.1099 107.486C88.2284 107.586 88.3394 107.693 88.4209 107.807C88.9466 108.455 88.954 109.25 88.9392 110.012C88.9022 113.14 89.0502 116.261 89.413 119.375C89.3464 119.837 89.2724 120.298 89.2057 120.759C89.1687 120.999 89.1317 121.247 89.0947 121.487C88.3468 126.506 87.6508 131.532 87.8359 136.625C87.8285 136.752 87.8285 136.872 87.8285 136.999C87.8137 137.26 87.8063 137.52 87.8063 137.774C87.0585 164.667 94.9662 189.262 111.84 211.463C112.048 211.744 112.255 212.018 112.47 212.292C112.514 212.352 112.559 212.406 112.603 212.466C117.282 219.122 121.947 225.799 126.693 232.422C127.234 233.164 127.722 233.925 128.478 234.514C128.5 234.534 128.522 234.554 128.552 234.574C128.618 234.634 128.677 234.687 128.737 234.754C128.796 234.814 128.848 234.874 128.892 234.941C129.011 235.108 129.092 235.289 129.122 235.503Z" fill="#303030"/>
<path d="M139.228 55.8648C136.985 56.6267 136.2 57.5557 136.4 59.6141C136.578 61.5121 136.481 63.4436 136.415 65.3617C136.259 69.532 132.602 72.8335 128.122 72.907C123.532 72.9805 119.726 69.6456 119.6 65.3416C119.526 62.7619 119.585 60.1755 119.585 57.5891C119.578 55.0896 119.533 52.5901 119.592 50.0905C119.696 45.6128 122.932 42.6722 127.922 42.4316C136.437 42.0306 142.834 36.39 142.953 29.1721C143.079 21.8741 136.689 15.6654 128.833 15.4448C120.274 15.2042 113.58 20.6043 113.077 28.1496C112.744 33.1353 109.738 36.2764 105.102 36.5036C99.8529 36.7576 95.8917 33.1754 95.9435 28.2231C96.062 15.124 107.368 2.94725 121.643 0.534614C139.058 -2.41268 155.244 7.15766 159.242 22.7563C162.789 36.5905 154.318 50.7522 139.228 55.8648Z" fill="#0B0BA5"/>
<path d="M155.74 93.8388C154.2 104.445 148.084 111.703 136.689 115.158C134.038 115.96 131.217 116.308 128.774 117.651C128.737 117.671 128.7 117.691 128.663 117.711C128.596 117.731 128.537 117.745 128.47 117.751C128.167 117.825 127.863 117.825 127.559 117.751C127.493 117.738 127.434 117.725 127.367 117.705C127.322 117.685 127.285 117.658 127.241 117.638C125.686 116.816 123.961 116.381 122.228 115.96C114.602 114.116 108.16 110.774 104.007 104.418C101.859 101.124 100.867 97.5413 100.231 93.8388C100.134 93.2841 100.127 92.7294 100.26 92.2015C100.371 91.7737 100.564 91.3661 100.867 90.9851C107.687 86.0329 115.742 86.895 123.635 87.0086C123.635 87.2292 123.591 87.423 123.517 87.5967C123.206 88.3586 122.302 88.7329 121.74 89.3143C118.963 92.1881 118.549 95.4094 120.622 98.7309C122.354 101.498 126.012 102.875 129.907 102.22C133.424 101.631 136.089 98.9515 136.622 95.4762C137 92.9633 135.771 90.9851 134.082 89.1406C133.594 88.6059 132.787 88.2651 132.483 87.5901C132.409 87.423 132.372 87.2358 132.372 87.0153C134.934 87.0019 137.525 87.2425 140.035 86.9351C145.811 86.2267 150.52 88.3987 155.155 90.9851C155.458 91.3727 155.636 91.7737 155.732 92.1948C155.843 92.7228 155.821 93.2708 155.74 93.8322V93.8388Z" fill="#AAAAAA"/>
<path d="M168.068 118.507C167.92 119.075 167.757 119.629 167.572 120.177C167.461 120.505 167.342 120.826 167.216 121.14C165.262 126.139 161.619 130.209 157.487 134.005C155.94 135.435 154.733 137.126 153.097 138.483C150.416 140.708 148.417 140.621 146.107 138.148C145.004 136.966 144.019 135.702 142.968 134.486C142.945 134.453 142.923 134.419 142.894 134.392C142.783 134.259 142.671 134.132 142.56 134.005C138.222 129.193 133.794 124.448 129.581 119.542C129.129 119.001 128.3 118.56 128.47 117.751C128.492 117.651 128.529 117.551 128.581 117.437C129.514 115.793 131.447 115.893 133.009 115.519C140.598 113.695 147.188 110.6 151.283 104.218C153.748 100.375 154.977 96.2314 155.133 91.8339C155.148 91.5532 155.155 91.2658 155.155 90.9851C161.212 94.6676 165.276 99.6532 167.105 106.062C167.32 106.818 167.69 107.432 168.46 107.813C168.482 108.041 168.497 108.268 168.52 108.488C168.793 111.843 169.053 115.192 168.068 118.507Z" fill="#EEEEEE"/>
<path d="M126.456 119.516C122.11 124.294 117.919 129.2 113.506 133.938C113.506 133.938 113.506 133.942 113.506 133.951C113.417 134.058 113.321 134.165 113.232 134.272C111.974 135.749 110.804 137.28 109.434 138.67C107.783 140.354 105.495 140.742 103.866 139.144C99.1495 134.519 93.8555 130.309 90.494 124.648C89.8869 123.626 89.413 122.577 89.102 121.487C88.9169 120.839 88.7984 120.177 88.7466 119.496C87.7693 115.68 88.1543 111.817 88.1173 107.96C88.1247 107.8 88.1173 107.646 88.1173 107.486C89.5907 105.28 89.8572 102.654 91.2566 100.395C93.6556 96.5455 96.8246 93.4178 100.875 90.9851C100.875 91.2725 100.875 91.5532 100.889 91.8339C101.215 103.91 109.153 112.378 123.006 115.512C124.576 115.867 126.486 115.807 127.448 117.417C127.508 117.537 127.545 117.644 127.567 117.751C127.752 118.553 126.937 119.001 126.464 119.516H126.456Z" fill="#EEEEEE"/>
<path d="M217.135 177.633C216.802 181.502 213.307 184.082 209.013 183.948C206.658 183.875 205.118 184.43 203.763 186.288C197.011 195.557 188.689 203.631 179.937 211.363C179.33 211.904 178.648 212.379 177.989 212.88C177.945 212.92 177.901 212.954 177.856 212.987C176.249 211.109 174.391 209.445 172.325 207.981C172.296 207.874 172.281 207.774 172.273 207.674C172.207 206.765 173.014 206.23 173.643 205.689C183.357 197.335 192.035 188.206 199.225 177.954C200.254 176.477 201.698 175.795 203.623 175.855C204.637 175.889 205.652 175.848 206.666 175.848C207.865 175.842 208.443 175.534 208.413 174.238C207.932 154.435 200.343 137.032 186.66 121.721C184.594 119.409 182.202 117.31 179.915 115.158C179.781 115.031 179.648 114.911 179.515 114.784C179.507 114.771 179.5 114.751 179.492 114.737C179.322 114.376 179.344 114.089 179.552 113.862C179.663 113.741 179.833 113.635 180.063 113.554C187.163 117.437 194.456 121.046 201.128 125.551C201.276 125.805 201.431 126.065 201.587 126.319C204.563 131.325 207.769 136.23 210.02 141.55C213.27 149.229 215.736 157.075 216.728 165.302C217.224 169.426 217.483 173.543 217.135 177.633Z" fill="#2B2B2B"/>
<path d="M134.712 100.642C131.165 103.857 125.16 103.93 121.488 100.809C117.786 97.6616 117.601 92.3284 121.133 88.9334C121.629 88.4588 122.199 88.0512 122.769 87.6435C123.058 87.4363 123.354 87.2225 123.635 87.0086C126.552 85.9593 129.462 85.966 132.372 87.0153C132.668 87.2158 132.95 87.4229 133.224 87.6435C138.221 91.5131 138.88 96.8663 134.712 100.642Z" fill="#0B0BA5"/>
<path d="M179.915 115.158C180.092 115.7 180.026 116.268 179.929 116.856C178.915 123.004 176.842 128.785 172.614 133.804C171.859 134.7 171.274 136.17 169.852 135.93C169.43 135.856 169.186 135.676 169.045 135.422C168.697 134.82 168.942 133.844 168.697 133.163C168.675 133.103 168.653 133.042 168.638 132.982C168.556 132.728 168.482 132.461 168.423 132.194C168.171 128.498 167.261 124.849 167.216 121.14C167.209 120.425 167.231 119.709 167.298 118.994C168.046 116.147 168.009 113.253 167.942 110.353C167.927 109.651 167.601 108.869 168.038 108.221C168.142 108.074 168.275 107.94 168.46 107.813C172.244 109.858 176.457 111.202 180.063 113.554C179.974 113.708 179.885 113.855 179.803 114.009C179.707 114.162 179.618 114.323 179.53 114.476C179.715 114.697 179.833 114.924 179.915 115.158Z" fill="#303030"/>
<path d="M124.124 255.499C95.8768 255.499 67.6299 255.499 39.3829 255.499C39.3829 234.955 39.3162 214.417 39.4347 193.873C39.4495 190.839 38.4425 188.426 36.4804 186.1C33.4151 182.485 30.5422 178.742 27.4769 175.127C26.159 173.569 26.0035 172.233 26.8772 170.348C29.0318 165.71 31.9046 161.526 35.5031 157.724C36.4804 156.688 37.7021 155.973 39.1089 156.741C40.3824 157.443 40.6712 158.639 40.2269 160.029C39.9308 160.965 40.0122 161.994 39.9234 162.983C39.2496 163.732 40.0196 164.734 39.3754 165.489C39.3754 165.991 39.3754 166.485 39.3754 166.987C38.6202 168.256 39.5531 169.713 38.8275 170.99C38.8275 172.821 38.7979 174.652 38.8275 176.477C38.909 181.001 42.152 184.015 47.1721 183.942C49.608 183.902 51.0963 184.49 52.5253 186.448C59.7518 196.373 69.1033 204.66 78.7139 212.606C92.0563 223.633 106.731 233.157 122.243 241.584C123.606 242.326 124.205 243.081 124.168 244.518C124.072 248.174 124.131 251.836 124.131 255.499H124.124Z" fill="#303030"/>
<path d="M169.082 132.461C170.008 133.37 169.26 134.566 169.852 135.829C176.035 129.674 178.589 122.383 179.529 114.477C183.469 116.996 186.438 120.378 189.34 123.766C198.551 134.519 204.556 146.616 207.473 159.942C208.376 164.086 209.035 168.25 208.939 172.513C208.85 176.483 208.991 176.597 204.533 176.437C202.157 176.35 200.624 176.944 199.321 178.836C192.827 188.252 184.972 196.687 176.101 204.352C174.776 205.495 173.584 206.765 172.325 207.981C168.453 210.086 165.484 213.181 161.967 215.687C151.586 223.072 140.746 229.809 129.122 235.503C128.937 235.336 128.752 235.162 128.566 234.995C128.189 233.945 129.063 233.297 129.566 232.555C134.097 225.845 139.103 219.403 143.367 212.546C153.889 199.32 160.841 184.67 164.914 168.844C167.409 159.154 168.386 149.329 168.505 139.412C168.519 138.489 168.26 137.594 168.216 136.678C168.327 135.241 167.749 133.697 169.075 132.468L169.082 132.461Z" fill="#303030"/>
<path d="M143.575 212.893C142.701 216.121 140.087 218.474 138.295 221.234C135.252 225.926 131.824 230.417 128.559 234.988C127.856 234.975 127.359 234.681 126.989 234.146C122.206 227.302 117.408 220.465 112.625 213.615C112.484 213.421 112.507 213.134 112.447 212.893C111.559 211.69 111.737 210.38 111.907 209.037C114.461 188.988 117.053 168.938 119.496 148.875C119.711 147.144 119.948 145.413 120.222 143.682C120.585 142.827 120.607 141.824 121.518 141.196C125.827 140.401 130.136 140.454 134.445 141.156C135.415 141.744 135.415 142.766 135.785 143.622C138.621 165.583 141.265 187.571 144.182 209.532C144.337 210.715 144.315 211.857 143.575 212.9V212.893Z" fill="#282828"/>
<path d="M120.844 143.548C120.059 150.486 119.326 157.436 118.467 164.367C117.475 172.373 116.357 180.366 115.32 188.366C114.387 195.544 113.484 202.722 112.596 209.899C112.47 210.888 112.499 211.898 112.455 212.893C110.804 212.305 110.5 210.748 109.627 209.625C99.2088 196.105 92.9893 180.994 89.3761 164.975C87.2955 155.759 86.481 146.402 86.9993 136.979C88.1914 136.705 88.5468 137.661 89.1687 138.202C91.8343 140.508 93.9963 143.241 96.6618 145.547C102.829 150.887 111.707 150.385 117.097 144.397C117.742 143.682 118.386 142.974 119.2 142.419C119.637 142.125 120.155 141.711 120.681 141.998C121.37 142.379 121.103 143 120.844 143.548Z" fill="#EEEEEE"/>
<path d="M120.844 143.548C120.844 142.446 120.629 141.811 119.437 142.96C117.26 145.052 115.468 147.411 112.292 148.648C106.828 150.78 100.771 150.145 96.5137 146.262C93.2262 143.268 90.1608 140.073 86.9919 136.972C86.8512 131.084 87.4731 125.263 88.7318 119.489C91.2937 127.215 97.913 132.321 103.511 138.075C105.673 140.294 107.368 140.066 109.308 137.761C110.522 136.311 111.796 134.907 113.047 133.477C113.632 133.911 113.862 134.539 114.187 135.121C115.772 137.955 117.342 140.815 121.303 141.49C121.303 142.198 121.466 142.947 120.844 143.542V143.548Z" fill="#AAAAAA"/>
<path d="M121.303 141.49C117.26 141.457 113.906 138.202 113.055 133.477C117.853 128.124 122.643 122.77 127.441 117.411C127.819 117.411 128.204 117.424 128.581 117.431C133.379 122.777 138.177 128.13 142.968 133.477C143.39 135.816 140.421 140.922 138.096 141.757C136.941 142.172 135.771 142.299 134.712 141.49C130.24 141.49 125.768 141.49 121.296 141.49H121.303Z" fill="#303030"/>
<path d="M134.712 141.49C137.607 141.911 139.495 140.762 140.517 138.376C141.235 136.698 143.101 135.495 142.968 133.477C144.352 135.121 145.722 136.772 147.136 138.396C148.387 139.833 150.253 140.1 151.475 138.917C156.843 133.724 162.826 128.939 166.054 122.229C166.557 121.186 166.891 120.07 167.298 118.994C168.401 123.432 168.823 127.937 169.082 132.468C169.06 133.971 169.045 135.475 169.023 136.979C165.558 141.684 161.796 146.248 156.251 149.035C150.157 152.103 142.427 150.325 137.836 145.353C137.126 144.584 136.763 143.295 135.164 143.575C134.549 142.967 134.719 142.219 134.719 141.497L134.712 141.49Z" fill="#AAAAAA"/>
<path d="M135.164 143.568C135.349 142.746 135.149 141.069 136.63 142.974C138.458 145.313 140.643 147.238 143.545 148.514C149.076 150.953 155.162 150.218 159.523 146.248C162.803 143.254 165.869 140.066 169.03 136.972C169.327 143.094 169.201 149.222 168.342 155.298C166.95 165.075 164.492 174.639 160.812 183.962C156.895 193.88 151.46 203.062 144.996 211.777C144.634 212.265 144.263 212.74 143.582 212.9C142.568 204.479 141.583 196.058 140.539 187.638C139.539 179.551 138.451 171.478 137.459 163.391C136.652 156.788 135.926 150.178 135.164 143.575V143.568Z" fill="#EEEEEE"/>
</g>
<defs>
<clipPath id="clip0_691_2">
<rect width="256" height="256" fill="white"/>
</clipPath>
</defs>
</svg>
