<svg width="482" height="401" viewBox="0 0 482 401" fill="none" xmlns="http://www.w3.org/2000/svg">
<path d="M344.278 87.5159C347.62 90.9005 347.967 93.7937 345.492 96.3503C343.136 98.7796 339.748 98.4338 336.598 95.3404C332.287 91.1006 327.959 86.8881 323.803 82.5118C322.315 80.9469 321.502 80.9742 320.032 82.5027C315.648 87.0701 311.073 91.4554 306.599 95.9409C304.617 97.9334 302.288 98.6158 299.759 97.4512C297.768 96.5323 296.635 94.8036 296.727 92.4835C296.699 90.3546 298.033 88.9898 299.412 87.6251C303.695 83.3671 307.904 79.0272 312.279 74.8602C313.831 73.3772 313.776 72.4673 312.251 71.0116C307.777 66.7354 303.402 62.3592 299.074 57.9374C296.151 54.9532 295.95 51.7415 298.343 49.4214C300.69 47.1378 303.941 47.4107 306.918 50.3131C311.256 54.5256 315.603 58.7199 319.731 63.1234C321.502 65.0159 322.479 64.8339 324.141 63.0506C327.758 59.1748 331.611 55.5264 335.374 51.7779C339.593 47.5927 342.926 46.8648 345.52 49.5852C348.223 52.4239 347.547 55.1533 343.018 59.6752C339.264 63.4237 335.584 67.254 331.712 70.866C329.986 72.4855 330.041 73.4591 331.73 75.0604C336.022 79.1 340.15 83.3125 344.278 87.5159Z" fill="url(#paint0_linear_351_267)"/>
<path fill-rule="evenodd" clip-rule="evenodd" d="M482 187.135V183.349C482 181.692 480.657 180.349 479 180.349H423.685C422.029 180.349 420.685 181.692 420.685 183.349V185.439V193.922V199.012C420.685 199.012 405.706 198.237 399.396 194.771C395.113 192.414 394.951 187.381 393.435 183.742C388.147 171.059 380.119 166.027 366.184 165.927C359.088 165.872 353.41 165.927 353.41 165.927H343.636C341.979 165.927 340.636 164.584 340.636 162.927V148.112V145.173C340.636 143.516 341.979 142.173 343.636 142.173H391.258C392.915 142.173 394.258 140.83 394.258 139.173V3.5C394.258 1.84314 392.915 0.5 391.258 0.5H252.516C250.859 0.5 249.516 1.84315 249.516 3.5L249.516 139.173C249.516 140.83 250.859 142.173 252.516 142.173H300.166C301.823 142.173 303.166 143.516 303.166 145.173V146.415V162.706C303.166 164.363 301.823 165.706 300.166 165.706H299.549C299.549 165.706 281.239 165.616 272.079 165.634C265.623 165.634 263.65 167.763 264.189 174.241C265.12 185.559 268.901 195.349 279.385 201.472C264.746 209.187 262.244 217.903 270.572 231.933C271.239 233.052 271.138 233.661 270.39 234.571C263.139 243.378 264.947 254.224 271.622 261.466C262.983 272.475 263.659 282.364 273.896 291.181C275.495 292.555 275.011 293.328 274.371 294.747C268.189 308.431 277.11 322.679 292.095 322.87C308.634 323.089 321.901 323.719 341.488 322.87C356.641 322.214 378.958 312.69 378.958 312.69C378.958 312.69 398.622 303.298 412.17 302.51C413.87 302.411 416.063 302.414 417.797 302.44C419.41 302.464 420.685 303.787 420.685 305.401V310.994L420.782 315.69C420.815 317.323 422.148 318.629 423.781 318.629H473.484H479C480.657 318.629 482 317.286 482 315.629V213.434V193.922V187.135ZM450.491 308.449H460.71H467.929C469.586 308.449 470.929 307.105 470.929 305.449V299.965V196.467V194.377C470.929 192.72 469.586 191.377 467.929 191.377H434.756C433.099 191.377 431.756 192.72 431.756 194.377V204.102V235.491V249.913V262.638V275.363V277.06V281.302V283.847V291.482V297.42V305.449C431.756 307.105 433.099 308.449 434.756 308.449H450.491ZM370.442 304.207C370.442 304.207 394.711 293.171 411.318 292.33C413.216 292.234 415.669 292.238 417.589 292.263C419.284 292.286 420.685 290.926 420.685 289.231V285.543V233.794V209.192H411.318C411.318 209.192 396.969 206.827 390.028 202.406C386.406 200.098 385.351 196.189 384.177 192.51C383.792 191.301 383.406 190.093 382.934 188.934C382.741 188.454 382.536 187.981 382.331 187.508C382.187 187.174 382.042 186.84 381.902 186.505C379.199 179.945 374.231 176.615 367.172 176.524C363.469 176.479 359.764 176.482 356.059 176.486H356.057C351.639 176.49 347.222 176.494 342.808 176.415C340.351 176.37 339.83 177.352 339.885 179.536C339.968 182.826 339.953 186.124 339.936 189.689C339.929 191.211 339.922 192.782 339.922 194.421C343.027 191.682 345.83 190.481 348.753 192.974C351.611 195.421 350.816 198.533 349.711 201.508C347.164 208.386 341.356 212.126 333.045 212.153C325.146 212.176 317.247 212.171 309.347 212.167C301.446 212.162 293.544 212.158 285.64 212.18C279.686 212.199 276.362 215.083 276.481 219.896C276.6 224.554 279.878 227.293 285.558 227.347C291.613 227.411 297.667 227.42 303.722 227.402C307.411 227.384 309.813 229.012 309.85 232.779C309.877 236.555 307.484 238.229 303.804 238.229C302.377 238.226 300.95 238.221 299.523 238.216C299.51 238.216 299.496 238.216 299.482 238.216C295.161 238.201 290.841 238.186 286.526 238.247C280.399 238.338 276.563 241.768 276.49 247.063C276.417 252.413 280.134 255.943 286.252 256.08C289.184 256.146 292.118 256.141 295.053 256.131C295.248 256.13 295.444 256.129 295.639 256.129H295.64C298.124 256.12 300.608 256.111 303.092 256.143C307.649 256.198 310.16 258.272 309.886 261.802C309.567 265.878 306.827 267.161 303.138 267.152C297.814 267.134 292.499 267.143 287.184 267.152C280.097 267.152 276.07 270.282 276.179 275.677C276.28 281.045 280.271 284.02 287.43 284.02C288.332 284.022 289.233 284.025 290.134 284.027H290.14H290.145C297.361 284.044 304.581 284.061 311.795 284.02C315.493 284.002 318.26 285.13 318.58 289.252C318.854 292.882 316.498 294.893 311.85 294.966C308.249 295.017 304.645 295.007 301.041 294.997H301.037C298.29 294.99 295.544 294.982 292.8 295.002C286.535 295.038 282.91 297.995 282.755 303.099C282.59 308.467 285.685 312.718 292.095 312.69C297.125 312.675 296.432 312.657 301.463 312.69H315.088C327.777 312.775 331.103 313.506 345.746 310.994C355.605 309.302 370.442 304.207 370.442 304.207ZM302.873 191.1C302.781 187.006 302.809 182.902 302.854 178.799C302.882 177.161 302.297 176.442 300.553 176.452C294.284 176.492 288.02 176.487 281.65 176.482C279.511 176.481 277.36 176.479 275.193 176.479C277.348 189.107 282.554 193.574 294.572 193.629C295.168 193.632 295.764 193.625 296.362 193.617C296.401 193.617 296.441 193.616 296.48 193.616H296.482C297.757 193.6 299.034 193.584 300.307 193.656C302.224 193.766 302.909 192.983 302.873 191.1ZM314.237 148.96V165.927V172.714V175.259V180.349V192.226V196.467V198.557C314.237 200.214 315.58 201.557 317.237 201.557H321.901H325.714C327.371 201.557 328.714 200.214 328.714 198.557V197.316V163.382V151.505V148.567C328.714 146.91 327.371 145.567 325.714 145.567H321.901H317.237C315.58 145.567 314.237 146.91 314.237 148.567V148.96ZM385.77 11.9834C385.77 10.3266 384.427 8.98343 382.77 8.98343H261.032C259.375 8.98343 258.032 10.3266 258.032 11.9834V130.69C258.032 132.347 259.375 133.69 261.032 133.69H382.77C384.427 133.69 385.77 132.347 385.77 130.69V11.9834Z" fill="url(#paint1_linear_351_267)"/>
<path d="M192.459 134.538C191.966 135.257 189.674 137.313 189.053 137.932C177.172 149.787 167.768 159.198 155.841 171.017C152.142 174.684 149.22 175.396 145.622 171.865C139.741 166.097 134.416 160.721 128.59 154.899C126.691 152.997 125.104 150.503 126.428 147.801C127.433 145.754 128.919 144.818 131.996 144.718C133.33 144.636 135.736 146.756 137.106 148.112C140.878 151.833 143.773 154.37 147.325 158.292C149.471 160.648 150.857 160.803 153.286 158.292C163.079 148.536 169.126 142.495 178.834 132.842C179.765 131.905 183.943 127.752 184.795 126.903C187.306 125.202 190.332 125.55 192.459 127.752C194.45 129.808 194.094 132.173 192.459 134.538Z" fill="url(#paint2_linear_351_267)"/>
<path fill-rule="evenodd" clip-rule="evenodd" d="M-6.23481e-05 264.335V260.548C-6.23481e-05 258.891 1.34308 257.548 2.99994 257.548H58.3144C59.9713 257.548 61.3144 258.891 61.3144 260.548V262.638V271.121V276.212C61.3144 276.212 76.2939 275.436 82.6042 271.97C86.8871 269.613 87.0494 264.581 88.5653 260.941C93.8528 248.258 101.881 243.226 115.816 243.126C122.912 243.072 128.59 243.126 128.59 243.126H138.364C140.021 243.126 141.364 241.783 141.364 240.126V225.311V222.373C141.364 220.716 140.021 219.373 138.364 219.373H90.7418C89.0849 219.373 87.7418 218.029 87.7418 216.373V80.6992C87.7418 79.0424 89.0849 77.6992 90.7418 77.6992H229.484C231.141 77.6992 232.484 79.0424 232.484 80.6992L232.484 216.373C232.484 218.029 231.141 219.373 229.484 219.373H181.834C180.177 219.373 178.834 220.716 178.834 222.373V223.614V239.906C178.834 241.563 180.177 242.906 181.834 242.906H182.451C182.451 242.906 200.761 242.815 209.921 242.833C216.377 242.833 218.35 244.962 217.811 251.44C216.879 262.758 213.099 272.548 202.615 278.671C217.254 286.386 219.756 295.102 211.428 309.132C210.761 310.251 210.861 310.861 211.61 311.77C218.861 320.578 217.053 331.423 210.377 338.665C219.016 349.674 218.341 359.564 208.103 368.38C206.505 369.754 206.989 370.527 207.629 371.946C213.811 385.63 204.89 399.879 189.905 400.07C173.366 400.288 160.099 400.918 140.512 400.07C125.359 399.413 103.042 389.889 103.042 389.889C103.042 389.889 83.3774 380.497 69.8303 379.709C68.1299 379.61 65.9373 379.613 64.2028 379.639C62.5895 379.663 61.3144 380.986 61.3144 382.6V388.193L61.2183 392.889C61.1849 394.522 59.8519 395.828 58.2189 395.828H8.51584H2.99994C1.34308 395.828 -6.23481e-05 394.485 -6.23481e-05 392.828V290.633V271.121V264.335ZM31.5088 385.648H21.2897H14.0706C12.4138 385.648 11.0706 384.305 11.0706 382.648V377.164V273.666V271.576C11.0706 269.92 12.4138 268.576 14.0706 268.576H47.2437C48.9006 268.576 50.2437 269.92 50.2437 271.576V281.302V312.69V327.112V339.837V352.562V354.259V358.501V361.046V368.681V374.619V382.648C50.2437 384.305 48.9006 385.648 47.2437 385.648H31.5088ZM111.558 381.406C111.558 381.406 87.2888 370.371 70.6819 369.529C68.7844 369.433 66.331 369.437 64.4111 369.463C62.7163 369.485 61.3144 368.125 61.3144 366.43V362.743V310.994V286.392H70.6819C70.6819 286.392 85.0312 284.027 91.9717 279.605C95.5941 277.297 96.649 273.389 97.8226 269.709C98.2082 268.501 98.5937 267.292 99.0657 266.134C99.2584 265.654 99.4637 265.18 99.6687 264.707C99.8133 264.373 99.9578 264.039 100.098 263.704C102.801 257.145 107.769 253.815 114.828 253.724C118.531 253.678 122.236 253.681 125.941 253.685H125.943C130.36 253.689 134.778 253.694 139.192 253.614C141.649 253.569 142.169 254.551 142.115 256.735C142.031 260.025 142.047 263.324 142.064 266.888C142.071 268.41 142.078 269.981 142.078 271.62C138.973 268.881 136.17 267.68 133.247 270.173C130.389 272.621 131.183 275.732 132.288 278.707C134.836 285.586 140.644 289.325 148.955 289.352C156.854 289.375 164.753 289.371 172.653 289.366C180.554 289.361 188.455 289.357 196.36 289.38C202.314 289.398 205.638 292.282 205.519 297.095C205.4 301.753 202.122 304.492 196.442 304.547C190.387 304.61 184.332 304.619 178.278 304.601C174.588 304.583 172.187 306.211 172.15 309.978C172.123 313.754 174.515 315.428 178.196 315.428C179.623 315.426 181.05 315.421 182.477 315.416C182.49 315.416 182.504 315.415 182.517 315.415C186.839 315.4 191.159 315.385 195.474 315.446C201.601 315.537 205.437 318.967 205.51 324.262C205.583 329.612 201.866 333.142 195.748 333.279C192.816 333.345 189.882 333.34 186.947 333.33C186.752 333.329 186.556 333.328 186.361 333.328H186.36C183.876 333.319 181.392 333.31 178.908 333.342C174.351 333.397 171.84 335.471 172.114 339.002C172.433 343.078 175.173 344.36 178.862 344.351C184.186 344.333 189.501 344.342 194.816 344.351C201.903 344.351 205.93 347.481 205.82 352.876C205.72 358.244 201.729 361.22 194.57 361.22C193.668 361.222 192.767 361.224 191.865 361.226H191.86H191.855C184.639 361.243 177.419 361.26 170.205 361.22C166.507 361.201 163.739 362.33 163.42 366.451C163.146 370.081 165.502 372.092 170.15 372.165C173.751 372.216 177.355 372.207 180.959 372.197H180.963C183.71 372.189 186.456 372.182 189.2 372.201C195.465 372.238 199.09 375.195 199.245 380.299C199.41 385.667 196.315 389.917 189.905 389.889C184.875 389.874 185.567 389.856 180.537 389.889H166.912C154.223 389.974 150.897 390.705 136.254 388.193C126.395 386.501 111.558 381.406 111.558 381.406ZM179.127 268.299C179.218 264.205 179.191 260.101 179.145 255.998C179.118 254.36 179.702 253.642 181.447 253.651C187.716 253.692 193.98 253.687 200.349 253.682C202.489 253.68 204.64 253.678 206.807 253.678C204.652 266.306 199.446 270.774 187.428 270.828C186.832 270.831 186.235 270.824 185.638 270.817C185.599 270.816 185.559 270.816 185.52 270.815H185.518C184.243 270.799 182.966 270.783 181.693 270.856C179.776 270.965 179.091 270.182 179.127 268.299ZM167.763 226.159V243.126V249.913V252.458V257.548V269.425V273.666V275.757C167.763 277.413 166.42 278.757 164.763 278.757H160.099H156.286C154.629 278.757 153.286 277.413 153.286 275.757V274.515V240.581V228.704V225.766C153.286 224.109 154.629 222.766 156.286 222.766H160.099H164.763C166.42 222.766 167.763 224.109 167.763 225.766V226.159ZM96.2296 89.1827C96.2296 87.5258 97.5728 86.1827 99.2296 86.1827H220.968C222.625 86.1827 223.968 87.5258 223.968 89.1826V207.889C223.968 209.546 222.625 210.889 220.968 210.889H99.2296C97.5728 210.889 96.2296 209.546 96.2296 207.889V89.1827Z" fill="url(#paint3_linear_351_267)"/>
<defs>
<linearGradient id="paint0_linear_351_267" x1="321.431" y1="49.688" x2="343.649" y2="84.7031" gradientUnits="userSpaceOnUse">
<stop offset="0.279167" stop-color="#EEEEEE"/>
<stop offset="0.773958" stop-color="#CCCCCC"/>
</linearGradient>
<linearGradient id="paint1_linear_351_267" x1="363.565" y1="12.0286" x2="520.57" y2="189.204" gradientUnits="userSpaceOnUse">
<stop offset="0.279167" stop-color="#EEEEEE"/>
<stop offset="0.773958" stop-color="#CCCCCC"/>
</linearGradient>
<linearGradient id="paint2_linear_351_267" x1="159.241" y1="127.556" x2="177.084" y2="166.815" gradientUnits="userSpaceOnUse">
<stop offset="0.279167" stop-color="#EEEEEE"/>
<stop offset="0.773958" stop-color="#CCCCCC"/>
</linearGradient>
<linearGradient id="paint3_linear_351_267" x1="118.435" y1="89.2278" x2="-38.5696" y2="266.403" gradientUnits="userSpaceOnUse">
<stop offset="0.279167" stop-color="#EEEEEE"/>
<stop offset="0.773958" stop-color="#CCCCCC"/>
</linearGradient>
</defs>
</svg>
