<svg width="25" height="25" viewBox="0 0 25 25" fill="none" xmlns="http://www.w3.org/2000/svg">
<path d="M1.29422 3.24192L21.1666 23.0302C21.7576 23.6187 22.5747 23.7368 22.9917 23.2942L23.0345 23.2488C23.4515 22.8061 23.3105 21.9702 22.7196 21.3817L2.84714 1.59342C2.25618 1.00497 1.43906 0.886798 1.02204 1.32948L0.979271 1.37488C0.562253 1.81756 0.703259 2.65346 1.29422 3.24192Z" fill="#AAAAAA"/>
<path d="M21.6012 1.16135L1.72882 20.9496C1.13786 21.5381 0.996858 22.374 1.41388 22.8167L1.45664 22.8621C1.87366 23.3048 2.69078 23.1866 3.28174 22.5981L23.1542 2.80984C23.7451 2.22139 23.8861 1.38549 23.4691 0.942805L23.4263 0.897405C23.0093 0.454723 22.1922 0.572896 21.6012 1.16135Z" fill="#AAAAAA"/>
</svg>
