<svg width="200" height="40" viewBox="0 0 200 40" fill="none" xmlns="http://www.w3.org/2000/svg">
<mask id="mask0_489_39" style="mask-type:alpha" maskUnits="userSpaceOnUse" x="0" y="0" width="200" height="40">
<path d="M19.8874 35.8444C15.1077 35.8444 10.8469 33.8136 8.01297 30.6409L2.95386 31.1182C6.44634 36.4153 12.6829 39.9624 19.8575 39.9998C28.439 40.0372 35.7533 34.9366 38.5672 27.7584L33.5281 28.2357C30.9137 32.7841 25.7947 35.8538 19.8874 35.8538V35.8444Z" fill="white"/>
<path d="M19.8874 31.6984C22.881 31.6984 25.5851 30.5941 27.5808 28.7972L13.9801 30.0793C15.6864 31.0995 17.7121 31.6984 19.8874 31.6984Z" fill="white"/>
<path d="M71.3367 24.6606V33.5422C71.3367 34.478 71.6061 35.1519 72.1449 35.5637C72.6838 35.9755 73.5319 36.1814 74.6895 36.1814C75.2882 36.1814 75.847 36.1346 76.3659 36.041C76.8847 35.9474 77.2639 35.8444 77.5034 35.7321V24.0803L71.3367 24.6606Z" fill="white"/>
<path d="M53.9142 33.5422C53.9142 34.478 54.1936 35.1519 54.7524 35.5637C55.3112 35.9755 56.1494 36.1814 57.267 36.1814C57.8657 36.1814 58.4145 36.1346 58.9134 36.041C59.4124 35.9474 59.8015 35.8444 60.0809 35.7321V25.7275L53.9142 26.3077V33.5422Z" fill="white"/>
<path d="M88.8191 24.1084V33.5422C88.8191 34.4781 89.0885 35.1519 89.6274 35.5637C90.1662 35.9755 91.0144 36.1814 92.1719 36.1814C92.7307 36.1814 93.2695 36.1346 93.7884 36.041C94.3073 35.9474 94.6865 35.8445 94.9259 35.7322V22.4332L88.8191 23.0134V24.1084Z" fill="white"/>
<path d="M121.389 22.7045C121.389 25.5871 120.691 27.8519 119.294 29.4991C117.897 31.1463 115.981 31.9698 113.546 31.9698C111.111 31.9698 109.145 31.1556 107.768 29.5272C106.391 27.8987 105.703 25.6245 105.703 22.7045C105.703 22.2553 105.723 21.8342 105.763 21.413L99.3964 22.012C99.3964 22.246 99.3564 22.4612 99.3564 22.7045C99.3564 25.5497 99.9452 28.011 101.123 30.0887C102.3 32.1664 103.957 33.7761 106.092 34.9179C108.227 36.0597 110.712 36.6306 113.546 36.6306C116.38 36.6306 118.914 36.0597 121.03 34.9179C123.145 33.7761 124.782 32.157 125.939 30.0606C127.097 27.9642 127.676 25.5122 127.676 22.7045C127.676 21.5253 127.546 20.4303 127.346 19.3821L121.14 19.9718C121.299 20.8141 121.389 21.7219 121.389 22.7139V22.7045Z" fill="white"/>
<path d="M132.106 21.02V28.5445C132.106 31.427 132.994 33.4954 134.77 34.7495C136.546 36.0035 138.931 36.6306 141.925 36.6306C144.04 36.6306 145.627 36.3124 146.685 35.676C147.742 35.0396 148.271 34.2347 148.271 33.2614C148.271 32.7747 148.161 32.3349 147.942 31.9418C147.722 31.5487 147.473 31.2212 147.193 30.9591C146.675 31.2212 146.016 31.4458 145.218 31.6329C144.419 31.8201 143.701 31.9137 143.062 31.9137C141.546 31.9137 140.368 31.6329 139.53 31.0714C138.692 30.5099 138.273 29.5553 138.273 28.2076V18.3433L132.106 18.9236V21.0106V21.02Z" fill="white"/>
<path d="M172.04 19.4477L157.152 21.413C157.252 19.3915 157.751 17.7256 158.669 16.4248L152.193 17.0331C151.584 18.6428 151.265 20.4491 151.265 22.48C151.265 25.5497 151.903 28.1421 153.181 30.2572C154.458 32.3723 156.264 33.9633 158.599 35.0302C160.934 36.0971 163.638 36.6306 166.712 36.6306C168.588 36.6306 170.274 36.4434 171.771 36.0691C173.267 35.6947 174.455 35.1706 175.333 34.4968C176.211 33.8229 176.65 33.0742 176.65 32.2506C176.65 31.7265 176.5 31.2399 176.201 30.7906C175.902 30.3414 175.513 29.9858 175.034 29.7237C174.195 30.2853 173.078 30.8094 171.681 31.296C170.284 31.7827 168.747 32.026 167.071 32.026C164.277 32.026 162.022 31.3615 160.305 30.0326C158.948 28.975 158.03 27.4963 157.551 25.6058L175.094 23.2661C175.972 23.1912 176.65 22.9292 177.129 22.48C177.608 22.0307 177.848 21.3382 177.848 20.4023C177.848 18.3059 177.359 16.4248 176.411 14.7495L170.274 15.3298C171.322 16.4809 171.92 17.8473 172.03 19.4477H172.04Z" fill="white"/>
<path d="M181.999 14.216C181.949 14.4781 181.919 14.7588 181.919 15.0583V33.5328C181.919 34.4687 182.198 35.1425 182.757 35.5543C183.316 35.9661 184.154 36.172 185.272 36.172C185.87 36.172 186.419 36.1252 186.918 36.0316C187.417 35.938 187.806 35.8351 188.086 35.7228V15.18C188.964 14.7308 190.071 14.3377 191.408 14.0008C192.746 13.6639 194.232 13.4954 195.869 13.4954C196.507 13.4954 197.136 13.5328 197.755 13.6077C198.373 13.6826 198.882 13.7574 199.281 13.8323C199.481 13.5703 199.651 13.2427 199.79 12.8496C199.83 12.7467 199.84 12.6437 199.87 12.5314L181.999 14.216Z" fill="white"/>
<path d="M4.43074 19.4571C4.43074 11.4272 11.3259 4.95084 19.8975 4.94148C28.479 4.93212 35.4141 11.4366 35.3841 19.4852C35.3841 21.9747 34.7056 24.3237 33.5281 26.364L38.5673 25.8867C39.3456 23.8932 39.7947 21.7594 39.8046 19.5133C39.8545 9.20914 31.0136 0.870365 19.9673 0.795494C9.01088 0.711264 0.0701173 9.04068 0.000267517 19.3822C-0.0196895 23.0041 1.07795 26.3733 2.96389 29.2465L8.02301 28.7692C5.77784 26.2517 4.43074 23.0041 4.43074 19.4571Z" fill="white"/>
<path d="M30.9537 19.4852C30.9737 13.7295 26.0243 9.07812 19.8875 9.08748C13.7707 9.08748 8.85129 13.7108 8.84131 19.4571C8.84131 23.1445 10.8869 26.3733 13.9703 28.2077L27.571 26.9255C29.6465 25.0444 30.9438 22.4145 30.9537 19.4852Z" fill="white"/>
<path d="M60.091 22.2367V13.196C60.7696 12.7842 61.6178 12.4099 62.6356 12.073C63.6534 11.736 64.7211 11.5676 65.8387 11.5676C67.4752 11.5676 68.8023 11.9607 69.8201 12.7468C70.8379 13.533 71.3468 14.7496 71.3468 16.3968V22.7889L77.5136 22.2086V15.7791C77.5136 15.0772 77.4138 14.4314 77.2641 13.8137C78.0125 13.196 78.8407 12.6907 79.7587 12.2976C80.8963 11.8109 82.0837 11.5676 83.3211 11.5676C84.9975 11.5676 86.3346 11.9607 87.3324 12.7468C88.3303 13.533 88.8292 14.7496 88.8292 16.3968V21.1417L94.9361 20.5615V16.1722C94.9361 14.0383 94.4671 12.2882 93.5291 10.9218C92.5911 9.55543 91.2939 8.54467 89.6375 7.88954C87.981 7.23442 86.0951 6.90686 83.9797 6.90686C81.7445 6.90686 79.7887 7.2625 78.1123 7.97377C76.835 8.51659 75.7075 9.13428 74.7296 9.83619C73.8514 8.97518 72.7338 8.28262 71.3468 7.77724C69.7503 7.19699 67.9541 6.90686 65.9584 6.90686C64.1623 6.90686 62.3861 7.15019 60.6299 7.63685C58.8737 8.12352 57.4168 8.72248 56.2593 9.43376C55.461 9.92042 54.8723 10.4445 54.4931 11.0061C54.1139 11.5676 53.9243 12.2601 53.9243 13.0837V24.4361L60.091 23.8558V22.2367Z" fill="white"/>
<path d="M107.838 14.0383C109.255 12.3912 111.161 11.5676 113.556 11.5676C115.951 11.5676 117.956 12.3912 119.333 14.0383C120.242 15.124 120.84 16.4716 121.15 18.0907L127.356 17.5011C127.067 16.0224 126.608 14.656 125.919 13.4487C124.742 11.3711 123.095 9.76132 120.98 8.61954C118.865 7.47775 116.41 6.90686 113.616 6.90686C110.822 6.90686 108.297 7.47775 106.162 8.61954C104.026 9.76132 102.36 11.3711 101.163 13.4487C100.065 15.3486 99.4962 17.5947 99.4064 20.1403L105.773 19.5414C105.962 17.2672 106.641 15.4328 107.838 14.0383Z" fill="white"/>
<path d="M138.273 12.8591H146.056C146.735 12.8591 147.263 12.6626 147.643 12.2695C148.022 11.8764 148.211 11.2868 148.211 10.5007C148.211 10.0514 148.142 9.62094 148.002 9.20915C147.862 8.79736 147.712 8.47915 147.553 8.25454H138.273V2.69536C138.273 1.72204 138.003 1.02948 137.465 0.617687C136.926 0.205896 136.097 0 134.98 0C134.381 0 133.822 0.0561533 133.303 0.16846C132.785 0.280767 132.385 0.374356 132.106 0.449227V17.0613L138.273 16.481V12.8685V12.8591Z" fill="white"/>
<path d="M159.407 13.6453C160.884 12.1478 162.74 11.3991 164.975 11.3991C167.211 11.3991 168.867 11.9981 170.064 13.196C170.144 13.2803 170.204 13.3739 170.284 13.4581L176.421 12.8778C176.351 12.7655 176.311 12.6345 176.241 12.5222C175.163 10.7627 173.657 9.38697 171.721 8.39492C169.785 7.40288 167.56 6.90686 165.045 6.90686C163.129 6.90686 161.333 7.20634 159.657 7.80531C157.98 8.40428 156.524 9.28402 155.286 10.4445C154.049 11.605 153.071 13.0369 152.353 14.7403C152.293 14.8713 152.253 15.021 152.203 15.1614L158.679 14.5531C158.898 14.2349 159.148 13.926 159.417 13.6453H159.407Z" fill="white"/>
<path d="M200 9.71453C200 7.88018 198.264 6.96301 194.791 6.96301C192.636 6.96301 190.65 7.18763 188.834 7.63685C187.018 8.08608 185.551 8.64761 184.434 9.32145C183.595 9.84555 182.967 10.3977 182.548 10.978C182.268 11.3617 182.089 11.8203 181.999 12.3444L199.87 10.6598C199.95 10.3603 200 10.0421 200 9.71453Z" fill="white"/>
</mask>
<g mask="url(#mask0_489_39)">
<rect width="200" height="40" fill="url(#paint0_linear_489_39)"/>
</g>
<defs>
<linearGradient id="paint0_linear_489_39" x1="98.1132" y1="1.42857" x2="103.036" y2="39.9954" gradientUnits="userSpaceOnUse">
<stop offset="0.279167" stop-color="#0B0BA5"/>
<stop offset="0.773958" stop-color="#0A0A6B"/>
</linearGradient>
</defs>
</svg>
