<svg width="24" height="24" viewBox="0 0 24 24" fill="none" xmlns="http://www.w3.org/2000/svg">
<path d="M23.6556 22.5653C21.6989 20.6454 19.7505 18.7196 17.7903 16.8032C17.6134 16.6309 17.6286 16.5418 17.7786 16.3637C19.8477 13.9163 20.6175 11.0998 19.9953 7.9597C19.4658 5.29082 17.9895 3.20213 15.7317 1.69949C13.5115 0.220298 11.0569 -0.283707 8.42534 0.149972C5.83015 0.576617 3.70712 1.83897 2.1008 3.9136C0.117198 6.47347 -0.455737 9.36271 0.357386 12.4864C1.03225 15.0779 2.59289 17.0435 4.8776 18.4289C7.05452 19.7487 9.41421 20.1425 11.9051 19.7182C13.5068 19.4463 14.9655 18.8028 16.2566 17.8065C16.4031 17.6929 16.4851 17.68 16.6316 17.8253C18.5671 19.744 20.512 21.6534 22.4523 23.5663C22.6234 23.735 22.7944 23.8991 23.0159 23.9999H23.3908C23.6813 23.9085 23.8782 23.7128 24 23.4385V23.0165C23.8911 22.8618 23.7938 22.7013 23.6556 22.5653ZM15.8161 16.1703C14.6644 17.2111 13.3146 17.8945 11.795 18.1687C8.99242 18.6751 6.47924 18.0187 4.3363 16.1093C2.94321 14.8681 2.05627 13.3162 1.73173 11.4772C1.25604 8.77783 1.93794 6.38556 3.76805 4.33907C5.01234 2.94778 6.57883 2.09566 8.39605 1.71473C9.4189 1.50141 10.4558 1.48617 11.4892 1.65847C13.1904 1.94095 14.6831 2.65827 15.9497 3.83272C17.2068 4.99779 18.0293 6.41838 18.423 8.08512C18.5659 8.69227 18.6374 9.31114 18.6316 9.93938C18.5894 12.4196 17.6603 14.5047 15.8161 16.1703Z" fill="#777777"/>
</svg>
