<svg width="64" height="64" viewBox="0 0 64 64" fill="none" xmlns="http://www.w3.org/2000/svg">
<g clip-path="url(#clip0_57_356)">
<path d="M63.0815 60.1743C57.8637 55.0545 52.6679 49.9192 47.4408 44.8088C46.969 44.3493 47.0096 44.1118 47.4095 43.6367C52.9272 37.1104 54.9799 29.5996 53.3209 21.2261C51.9087 14.109 47.9719 8.5392 41.9512 4.53216C36.0305 0.587644 29.4849 -0.756369 22.4675 0.400107C15.547 1.53783 9.88562 4.90411 5.60208 10.4364C0.312488 17.2628 -1.21534 24.9674 0.952988 33.2972C2.75264 40.2079 6.91432 45.4495 13.0069 49.144C18.812 52.6634 25.1045 53.7136 31.747 52.5822C36.018 51.857 39.9079 50.1411 43.351 47.4843C43.7415 47.1811 43.9602 47.1467 44.3508 47.5343C49.5123 52.6509 54.6987 57.7426 59.8727 62.8436C60.3289 63.2936 60.7851 63.7312 61.3756 64H62.3754C63.1502 63.7562 63.6751 63.2343 64 62.5029V61.3776C63.7095 60.9651 63.4502 60.5369 63.0815 60.1743ZM42.1762 43.121C39.1049 45.8965 35.5056 47.7187 31.4533 48.4501C23.9797 49.8004 17.2779 48.05 11.5634 42.9584C7.84852 39.6484 5.48335 35.5101 4.6179 30.606C3.3494 23.4077 5.16779 17.0284 10.0481 11.571C13.3662 7.86094 17.5435 5.58862 22.3894 4.5728C25.117 4.00394 27.8821 3.9633 30.6378 4.42277C35.1744 5.17604 39.1549 7.08891 42.5324 10.2208C45.8848 13.3276 48.0782 17.1159 49.128 21.5605C49.5091 23.1796 49.6997 24.8299 49.6841 26.5052C49.5716 33.119 47.094 38.6795 42.1762 43.121Z" fill="url(#paint0_linear_57_356)"/>
</g>
<defs>
<linearGradient id="paint0_linear_57_356" x1="31.3966" y1="2.28589" x2="59.8365" y2="46.8471" gradientUnits="userSpaceOnUse">
<stop offset="0.279167" stop-color="#0B0BA5"/>
<stop offset="0.773958" stop-color="#0A0A6B"/>
</linearGradient>
<clipPath id="clip0_57_356">
<rect width="64" height="64" fill="white"/>
</clipPath>
</defs>
</svg>
