<svg width="64" height="64" viewBox="0 0 64 64" fill="none" xmlns="http://www.w3.org/2000/svg">
<g clip-path="url(#clip0_57_373)">
<path d="M63.9999 29.4532C63.8681 28.7201 63.9308 27.9727 63.8264 27.237C63.2746 23.3447 61.9924 19.7028 60.0827 16.2736C58.2122 12.9148 55.7794 10.0203 52.8719 7.51852C50.5109 5.48627 47.9086 3.82578 45.0519 2.57748C42.1235 1.29787 39.1077 0.349577 35.8949 0.109569C35.4044 0.073046 34.9035 0.152614 34.4209 0H29.4289C28.778 0.1187 28.1114 0.0652196 27.4592 0.153918C23.8577 0.639152 20.4532 1.76484 17.2365 3.43316C13.408 5.41975 10.1326 8.11723 7.36333 11.42C4.33708 15.0266 2.26436 19.1263 0.989939 23.6578C-0.0979467 27.5253 -0.124035 31.4685 0.135544 35.409C0.387297 39.2048 1.55867 42.7906 3.24528 46.1898C5.258 50.2452 8.0325 53.7214 11.5088 56.6237C15.1533 59.6681 19.2883 61.7617 23.8655 63.0334C27.7162 64.1044 31.6399 64.1239 35.5583 63.8565C39.5459 63.5839 43.2988 62.316 46.835 60.4781C50.6205 58.5098 53.8919 55.8697 56.6325 52.5931C60.4988 47.9729 62.9224 42.6941 63.8173 36.7239C63.9242 36.0091 63.859 35.2812 63.9999 34.5703V30.2019C63.9203 30.1184 63.9203 30.0349 63.9999 29.9528V29.4532ZM32.0677 4.26145C47.3307 4.30449 59.7814 16.7732 59.7357 31.968C59.6901 47.232 47.2159 59.6877 32.0286 59.6355C16.7643 59.5833 4.32142 47.1212 4.36447 31.9289C4.40752 16.6675 16.8725 4.2184 32.0677 4.26145Z" fill="url(#paint0_linear_57_373)"/>
<path d="M44.3933 41.7718C43.6198 42.7645 42.3036 42.8949 41.2483 42.0536C37.7564 39.2687 34.271 36.4747 30.7843 33.6846C30.196 33.2137 29.9116 32.6137 29.9155 31.848C29.9299 29.0397 29.9208 26.2326 29.9208 23.4256H29.9234C29.9234 20.5768 29.9155 17.728 29.9273 14.8792C29.9325 13.777 30.7178 12.9252 31.8239 12.7635C32.7592 12.6278 33.7505 13.2878 34.0897 14.2518C34.2045 14.5792 34.1771 14.9092 34.1771 15.2379C34.181 20.2702 34.1836 25.3026 34.1719 30.3349C34.1719 30.7419 34.2827 31.0015 34.6154 31.2649C37.7264 33.7263 40.8205 36.2125 43.9159 38.6935C44.949 39.5204 45.1446 40.8066 44.3933 41.7718Z" fill="url(#paint1_linear_57_373)"/>
</g>
<defs>
<linearGradient id="paint0_linear_57_373" x1="31.3959" y1="2.28572" x2="59.8358" y2="46.8474" gradientUnits="userSpaceOnUse">
<stop offset="0.279167" stop-color="#0B0BA5"/>
<stop offset="0.773958" stop-color="#0A0A6B"/>
</linearGradient>
<linearGradient id="paint1_linear_57_373" x1="37.2406" y1="13.8123" x2="51.4467" y2="24.942" gradientUnits="userSpaceOnUse">
<stop offset="0.279167" stop-color="#0B0BA5"/>
<stop offset="0.773958" stop-color="#0A0A6B"/>
</linearGradient>
<clipPath id="clip0_57_373">
<rect width="64" height="64" fill="white"/>
</clipPath>
</defs>
</svg>
