<svg width="64" height="64" viewBox="0 0 64 64" fill="none" xmlns="http://www.w3.org/2000/svg">
<g clip-path="url(#clip0_62_390)">
<path d="M63.6182 22.2192C62.3677 19.711 60.3437 18.3877 57.5426 18.3627C53.3128 18.3244 49.0846 18.3544 44.8547 18.3511C44.1111 18.3511 44.0677 18.3078 44.0661 17.5811C44.0594 16.1679 44.0694 14.7546 44.0627 13.3414C44.0461 10.1616 41.8869 8.00507 38.7174 8.00174C34.2391 8.00007 29.7609 8.00007 25.2809 8.00174C22.1047 8.00507 19.9556 10.1516 19.9389 13.3364C19.9323 14.708 19.9389 16.0796 19.9373 17.4511C19.9356 18.3327 19.9173 18.3494 19.0203 18.3494C14.8954 18.3527 10.7706 18.4144 6.64742 18.3294C3.59298 18.2694 0.218413 20.5409 0 23.9007V58.4419C0.133382 59.0218 0.113375 59.6318 0.406815 60.1834C1.72563 62.6616 3.77304 63.9882 6.59741 63.9915C18.6151 64.0065 30.6345 63.9982 42.6539 63.9982C47.569 63.9982 52.4841 63.9982 57.4009 63.9982C58.6764 63.9982 59.8968 63.7432 60.9739 63.0449C62.6478 61.96 63.8449 60.5351 64 58.4435V24.0257C63.8766 23.4224 63.905 22.7941 63.6182 22.2175V22.2192ZM4.10316 57.3569C4.09483 50.439 4.09816 43.5195 4.09983 36.5999C4.09983 36.5049 4.1115 36.4083 4.12317 36.2433C6.55906 38.0465 9.45845 38.4581 12.1978 39.2714C17.9299 40.9763 23.662 42.6895 29.4374 44.2494C31.6132 44.8377 33.7123 44.5511 35.8147 43.9378C42.7623 41.9112 49.7131 39.893 56.6607 37.8682C57.8044 37.5365 58.8381 36.9799 59.8835 36.2316C59.8918 36.4283 59.9018 36.5316 59.9018 36.6333C59.9018 43.5111 59.9052 50.3874 59.9002 57.2653C59.8985 58.7868 58.9682 59.6935 57.4459 59.6935C40.4714 59.6935 23.4969 59.6935 6.52238 59.6935C5.06685 59.6935 4.10483 58.7835 4.10316 57.3569ZM58.8331 31.4386C57.9795 32.7052 56.8124 33.5734 55.3435 34.0001C48.2709 36.06 41.1917 38.1065 34.1174 40.1647C32.7019 40.5763 31.2981 40.5763 29.8826 40.1647C22.8933 38.1332 15.9058 36.0933 8.90825 34.0917C5.85047 33.2168 3.97978 30.5186 4.09316 27.6988C4.1265 26.8889 4.15318 26.0739 4.08816 25.269C3.95311 23.5991 5.22024 22.6041 6.71912 22.6125C15.1539 22.6608 23.5886 22.6358 32.0217 22.6358C40.4547 22.6358 48.9328 22.6358 57.3876 22.6375C58.6497 22.6375 59.6534 23.1441 59.7568 24.209C59.9935 26.6639 60.3487 29.1871 58.8331 31.4386ZM24.2472 13.2397C24.2488 12.5348 24.4756 12.2998 25.1675 12.2998C29.7292 12.2965 34.2892 12.2965 38.8508 12.2998C39.5094 12.2998 39.7512 12.5398 39.7545 13.1947C39.7595 14.8163 39.7378 16.4362 39.7678 18.0561C39.7762 18.4927 39.6178 18.5511 39.2393 18.5494C36.8234 18.5344 34.4075 18.5411 31.9917 18.5411C29.5758 18.5411 27.1599 18.5311 24.744 18.5511C24.3322 18.5544 24.2288 18.4411 24.2355 18.0394C24.2588 16.4395 24.2422 14.8396 24.2472 13.2397Z" fill="url(#paint0_linear_62_390)"/>
</g>
<defs>
<linearGradient id="paint0_linear_62_390" x1="31.3962" y1="10.0005" x2="54.7551" y2="51.8292" gradientUnits="userSpaceOnUse">
<stop offset="0.279167" stop-color="#0B0BA5"/>
<stop offset="0.773958" stop-color="#0A0A6B"/>
</linearGradient>
<clipPath id="clip0_62_390">
<rect width="64" height="64" fill="white"/>
</clipPath>
</defs>
</svg>
